<?xml version="1.0" encoding="UTF-8"?>
<svg id="Layer_1" xmlns="http://www.w3.org/2000/svg" version="1.1" viewBox="0 0 1080 1080">
  <!-- Generator: Adobe Illustrator 29.7.1, SVG Export Plug-In . SVG Version: 2.1.1 Build 8)  -->
  <defs>
    <style>
      .st0 {
        fill: #fff;
      }

      .st1 {
        fill: #cb122d;
      }

      .st2 {
        fill: #ff8300;
      }
    </style>
  </defs>
  <g>
    <path class="st0" d="M267.44,210.17c4.22,3.39,6.33,8.13,6.33,14.2,0,5.19-1.23,9.72-3.67,13.58-2.45,3.86-5.93,6.83-10.44,8.89-4.51,2.07-9.84,3.1-15.97,3.1h-13.81l-3.36,17.08h-14.43l12.39-61.95h25.05c7.73,0,13.7,1.7,17.92,5.09ZM255.36,234.99c2.6-2.18,3.89-5.31,3.89-9.38,0-2.95-.99-5.16-2.96-6.64-1.98-1.47-4.82-2.21-8.54-2.21h-11.24l-4.34,21.5h12.12c4.78,0,8.47-1.09,11.06-3.27Z"/>
    <path class="st0" d="M304.21,216.59l-2.66,13.45h28.76l-2.21,11.15h-28.85l-2.83,14.34h33.81l-2.39,11.5h-47.97l12.39-61.95h46.82l-2.39,11.5h-32.48Z"/>
    <path class="st0" d="M365.98,216.76h-19.82l2.39-11.68h53.98l-2.39,11.68h-19.74l-10.09,50.27h-14.34l10-50.27Z"/>
    <path class="st0" d="M458.9,239.15c-3.13,4.13-7.46,7.05-13.01,8.76l10.8,19.12h-15.13l-9.73-17.35h-12.21l-3.45,17.35h-14.43l12.39-61.95h25.22c7.67,0,13.63,1.68,17.88,5.04,4.25,3.36,6.37,8.08,6.37,14.16s-1.56,10.74-4.69,14.87ZM445.14,234.99c2.62-2.18,3.94-5.31,3.94-9.38,0-2.95-1-5.16-3.01-6.64-2.01-1.47-4.87-2.21-8.58-2.21h-11.33l-4.34,21.5h12.21c4.78,0,8.48-1.09,11.11-3.27Z"/>
    <path class="st0" d="M486.69,264.73c-4.54-2.24-8.02-5.4-10.44-9.47-2.42-4.07-3.63-8.76-3.63-14.07,0-7.02,1.61-13.35,4.82-18.98,3.22-5.63,7.73-10.07,13.54-13.32,5.81-3.24,12.46-4.87,19.96-4.87,6.19,0,11.56,1.12,16.11,3.36,4.54,2.24,8.02,5.4,10.44,9.47,2.42,4.07,3.63,8.76,3.63,14.07,0,7.02-1.61,13.35-4.82,18.98-3.22,5.63-7.73,10.08-13.54,13.32-5.81,3.25-12.46,4.87-19.96,4.87-6.19,0-11.56-1.12-16.11-3.36ZM515.98,252.61c3.42-2.18,6.05-5.1,7.88-8.76,1.83-3.66,2.74-7.7,2.74-12.12,0-4.72-1.48-8.48-4.42-11.28-2.95-2.8-7.11-4.2-12.48-4.2-4.54,0-8.53,1.09-11.95,3.27-3.42,2.18-6.05,5.1-7.88,8.76-1.83,3.66-2.74,7.7-2.74,12.12,0,4.72,1.47,8.48,4.42,11.28,2.95,2.8,7.11,4.2,12.48,4.2,4.54,0,8.52-1.09,11.95-3.27Z"/>
    <path class="st0" d="M631.39,205.08l-12.3,61.95h-13.45l7.26-36.82-23.63,30.27h-6.37l-12.74-30.62-7.43,37.17h-13.45l12.39-61.95h11.68l15.49,38.59,30.27-38.59h12.3Z"/>
    <path class="st0" d="M650.06,205.08h14.43l-12.39,61.95h-14.43l12.39-61.95Z"/>
    <path class="st0" d="M739.79,205.08l-12.39,61.95h-11.77l-23.1-38.76-7.79,38.76h-14.16l12.39-61.95h11.86l23.1,38.85,7.7-38.85h14.16Z"/>
    <path class="st0" d="M754.57,219.42h13.72l-9.47,47.61h-13.72l9.47-47.61ZM757.98,210.7c-1.5-1.39-2.26-3.08-2.26-5.09,0-2.36.84-4.32,2.52-5.89,1.68-1.56,3.88-2.35,6.59-2.35,2.42,0,4.38.66,5.88,1.99s2.26,2.96,2.26,4.91c0,2.54-.86,4.59-2.57,6.15-1.71,1.56-3.92,2.35-6.64,2.35-2.36,0-4.29-.69-5.8-2.08Z"/>
    <path class="st0" d="M794.31,250.22c-.12.47-.18,1.12-.18,1.95,0,3.07,1.68,4.6,5.04,4.6,1.83,0,3.69-.56,5.58-1.68l2.04,9.82c-3.07,1.89-7.02,2.83-11.86,2.83-4.48,0-8.08-1.18-10.8-3.54-2.71-2.36-4.07-5.6-4.07-9.73,0-1.18.15-2.57.44-4.16l3.8-19.2h-7.34l2.12-10.62h7.34l2.3-11.59h13.81l-2.3,11.59h11.86l-2.12,10.62h-11.86l-3.81,19.12Z"/>
    <path class="st0" d="M819.53,265.57c-1.54-1.44-2.3-3.2-2.3-5.27,0-2.48.85-4.51,2.57-6.11,1.71-1.59,3.83-2.39,6.37-2.39,2.3,0,4.22.69,5.75,2.08,1.53,1.39,2.3,3.11,2.3,5.18,0,2.42-.86,4.47-2.57,6.15-1.71,1.68-3.8,2.52-6.28,2.52s-4.31-.72-5.84-2.17ZM828.47,205.08h16.46l-10.89,40.44h-10.97l5.4-40.44Z"/>
  </g>
  <g>
    <path class="st1" d="M151.33,857.53c-1.83,2.5-4.4,4.32-7.7,5.47l6.41,11.31h-11.15l-5.6-10.02h-5.39l-1.99,10.02h-10.67l7.54-37.71h16.11c4.81,0,8.55,1.06,11.21,3.18,2.66,2.12,3.99,5.06,3.99,8.83,0,3.45-.92,6.42-2.75,8.92ZM141.74,846.17c-1.04-.77-2.5-1.16-4.36-1.16h-5.6l-2.26,11.04h6.36c2.37,0,4.2-.56,5.5-1.67,1.29-1.11,1.94-2.69,1.94-4.74,0-1.54-.52-2.7-1.56-3.47Z"/>
    <path class="st1" d="M171.48,844.84l-1.24,6.36h16.75l-1.56,7.97h-16.81l-1.35,6.9h19.77l-1.72,8.24h-30.22l7.54-37.71h29.52l-1.67,8.24h-19.02Z"/>
    <path class="st1" d="M198.84,836.6h16.38c3.88,0,7.24.64,10.07,1.91,2.84,1.28,5.02,3.11,6.55,5.5,1.53,2.39,2.29,5.2,2.29,8.43,0,4.38-1,8.22-2.99,11.53-1.99,3.3-4.77,5.85-8.32,7.65-3.56,1.8-7.63,2.69-12.23,2.69h-19.29l7.54-37.71ZM210.91,865.8c2.59,0,4.82-.55,6.71-1.64,1.89-1.09,3.31-2.6,4.28-4.52.97-1.92,1.45-4.1,1.45-6.55s-.79-4.52-2.37-5.9c-1.58-1.38-3.9-2.07-6.95-2.07h-6.25l-4.09,20.69h7.22Z"/>
    <path class="st1" d="M252.18,844.84l-1.24,6.36h16.75l-1.56,7.97h-16.81l-1.35,6.9h19.77l-1.72,8.24h-30.22l7.54-37.71h29.52l-1.67,8.24h-19.02Z"/>
    <path class="st1" d="M288.54,844.84l-1.67,8.3h16.65l-1.67,8.24h-16.59l-2.59,12.93h-10.67l7.54-37.71h29.52l-1.67,8.24h-18.85Z"/>
    <path class="st1" d="M314.13,836.6h10.67l-7.54,37.71h-10.67l7.54-37.71Z"/>
    <path class="st1" d="M368.22,836.6l-7.54,37.71h-8.78l-12.44-20.69-4.15,20.69h-10.45l7.54-37.71h8.78l12.5,20.63,4.09-20.63h10.45Z"/>
    <path class="st1" d="M384.65,844.84l-1.24,6.36h16.75l-1.56,7.97h-16.81l-1.35,6.9h19.77l-1.72,8.24h-30.22l7.54-37.71h29.52l-1.67,8.24h-19.02Z"/>
    <path class="st1" d="M442.99,860.95l-2.64,13.36h-10.67l2.69-13.63-9.59-24.08h10.72l5.93,15.03,12.07-15.03h10.83l-19.34,24.35Z"/>
    <path class="st1" d="M466.29,872.97c-2.82-1.4-4.99-3.36-6.52-5.87-1.53-2.51-2.29-5.39-2.29-8.62,0-4.31,1-8.19,2.99-11.64,1.99-3.45,4.78-6.14,8.35-8.08,3.57-1.94,7.64-2.91,12.2-2.91,3.81,0,7.12.7,9.94,2.1,2.82,1.4,4.99,3.36,6.52,5.87,1.53,2.51,2.29,5.39,2.29,8.62,0,4.31-1,8.19-2.99,11.64-1.99,3.45-4.78,6.14-8.35,8.08-3.57,1.94-7.64,2.91-12.2,2.91-3.81,0-7.12-.7-9.94-2.1ZM483.39,864.45c1.8-1.19,3.18-2.77,4.15-4.77s1.45-4.19,1.45-6.6c0-2.55-.78-4.59-2.34-6.11-1.56-1.53-3.74-2.29-6.55-2.29-2.37,0-4.45.59-6.25,1.78-1.8,1.19-3.18,2.77-4.15,4.77s-1.45,4.19-1.45,6.6c0,2.55.78,4.59,2.34,6.11,1.56,1.53,3.74,2.29,6.55,2.29,2.37,0,4.45-.59,6.25-1.78Z"/>
    <path class="st1" d="M511.35,873.42c-2.37-1.1-4.18-2.67-5.44-4.71-1.26-2.05-1.89-4.45-1.89-7.22,0-1.15.14-2.48.43-3.99l4.2-20.9h10.67l-4.15,20.74c-.22,1.08-.32,2.07-.32,2.96,0,3.95,2.08,5.93,6.25,5.93,2.26,0,4.05-.69,5.36-2.07,1.31-1.38,2.29-3.65,2.94-6.81l4.15-20.74h10.51l-4.26,21.39c-2.3,11.39-8.96,17.08-19.99,17.08-3.27,0-6.09-.55-8.46-1.64Z"/>
    <path class="st1" d="M579.88,857.53c-1.83,2.5-4.4,4.32-7.7,5.47l6.41,11.31h-11.15l-5.6-10.02h-5.39l-1.99,10.02h-10.67l7.54-37.71h16.11c4.81,0,8.55,1.06,11.21,3.18,2.66,2.12,3.99,5.06,3.99,8.83,0,3.45-.92,6.42-2.75,8.92ZM570.29,846.17c-1.04-.77-2.5-1.16-4.36-1.16h-5.6l-2.26,11.04h6.36c2.37,0,4.2-.56,5.49-1.67,1.29-1.11,1.94-2.69,1.94-4.74,0-1.54-.52-2.7-1.56-3.47Z"/>
    <path class="st1" d="M615.7,844.84l-1.24,6.36h16.75l-1.56,7.97h-16.81l-1.35,6.9h19.77l-1.72,8.24h-30.22l7.54-37.71h29.52l-1.67,8.24h-19.02Z"/>
    <path class="st1" d="M660.9,855.4l10.24,18.91h-11.53l-5.71-11.31-9.86,11.31h-12.77l17.94-19.5-9.64-18.21h11.37l5.49,10.83,9.59-10.83h12.07l-17.19,18.8Z"/>
    <path class="st1" d="M708.57,839.78c2.66,2.12,3.99,5.1,3.99,8.94,0,3.16-.76,5.93-2.29,8.3-1.53,2.37-3.7,4.2-6.52,5.5-2.82,1.29-6.1,1.94-9.83,1.94h-7.54l-1.94,9.86h-10.67l7.54-37.71h15.95c4.88,0,8.66,1.06,11.31,3.18ZM699.87,854.38c1.27-1.11,1.91-2.69,1.91-4.74,0-1.54-.51-2.7-1.54-3.47s-2.49-1.16-4.39-1.16h-5.6l-2.21,11.04h6.36c2.37,0,4.19-.56,5.47-1.67Z"/>
    <path class="st1" d="M729.31,844.84l-1.24,6.36h16.75l-1.56,7.97h-16.81l-1.35,6.9h19.77l-1.72,8.24h-30.22l7.54-37.71h29.52l-1.67,8.24h-19.02Z"/>
    <path class="st1" d="M785.23,857.53c-1.83,2.5-4.4,4.32-7.7,5.47l6.41,11.31h-11.15l-5.6-10.02h-5.39l-1.99,10.02h-10.67l7.54-37.71h16.11c4.81,0,8.55,1.06,11.21,3.18,2.66,2.12,3.99,5.06,3.99,8.83,0,3.45-.92,6.42-2.75,8.92ZM775.64,846.17c-1.04-.77-2.5-1.16-4.36-1.16h-5.6l-2.26,11.04h6.36c2.37,0,4.2-.56,5.49-1.67,1.29-1.11,1.94-2.69,1.94-4.74,0-1.54-.52-2.7-1.56-3.47Z"/>
    <path class="st1" d="M796.54,836.6h10.67l-7.54,37.71h-10.67l7.54-37.71Z"/>
    <path class="st1" d="M823.64,844.84l-1.24,6.36h16.75l-1.56,7.97h-16.81l-1.35,6.9h19.77l-1.72,8.24h-30.22l7.54-37.71h29.52l-1.67,8.24h-19.02Z"/>
    <path class="st1" d="M886.83,836.6l-7.54,37.71h-8.78l-12.44-20.69-4.15,20.69h-10.45l7.54-37.71h8.78l12.5,20.63,4.09-20.63h10.45Z"/>
    <path class="st1" d="M897.45,872.99c-2.87-1.38-5.08-3.33-6.63-5.84-1.54-2.51-2.32-5.4-2.32-8.67,0-4.31,1-8.19,2.99-11.64,1.99-3.45,4.79-6.14,8.38-8.08,3.59-1.94,7.69-2.91,12.28-2.91,3.48,0,6.57.62,9.27,1.86s4.7,2.99,6.03,5.25l-7.7,6.14c-1.83-2.94-4.6-4.42-8.3-4.42-2.41,0-4.53.57-6.36,1.7-1.83,1.13-3.26,2.69-4.28,4.69-1.02,1.99-1.54,4.23-1.54,6.71s.83,4.6,2.48,6.14c1.65,1.54,3.9,2.32,6.73,2.32,3.59,0,6.66-1.45,9.21-4.36l6.3,6.2c-2.05,2.48-4.44,4.26-7.17,5.36-2.73,1.09-5.85,1.64-9.37,1.64-3.81,0-7.15-.69-10.02-2.07Z"/>
    <path class="st1" d="M943.02,844.84l-1.24,6.36h16.75l-1.56,7.97h-16.81l-1.35,6.9h19.77l-1.72,8.24h-30.22l7.54-37.71h29.52l-1.67,8.24h-19.02Z"/>
  </g>
  <polygon class="st0" points="677.9 753.84 498.04 753.84 631.7 543.26 498.04 330.76 677.9 330.76 811.55 542.3 677.9 753.84"/>
  <polygon class="st0" points="428.26 753.84 248.4 753.84 382.06 543.26 248.4 330.76 428.26 330.76 561.92 542.3 428.26 753.84"/>
  <g>
    <g>
      <polygon class="st1" points="307.83 626.53 603.91 626.53 641.26 492.87 345.19 492.87 307.83 626.53"/>
      <path class="st1" d="M646.43,474.39h121.54l2.02-7.39h-121.5l-2.06,7.39ZM652.33,453.27h121.43l4.16-15.18h-121.34l-4.24,15.18ZM641.26,492.87h121.65l4.19-15.31h-121.56l-4.28,15.31ZM649.38,463.83h121.48l2.02-7.39h-121.44l-2.06,7.39Z"/>
    </g>
    <g>
      <g>
        <path class="st0" d="M384.52,587.24l-.48.48c-7.53,0-9.53.08-16.5.32l-.32-.48,3.96-15.14,2.48-9.85c3.8-15.38,4.55-18.82,7.12-30.84l.48-.4,7.93-.08,8.33-.16c4.81-.08,9.77-.16,13.93.88,8.71,2.24,10.82,9.45,10.78,15.22-.05,7.05-3.54,12.42-5.16,14.5-6.14,7.53-15.92,7.85-25.62,8.09h-2.88l-1.4,5.53-2.65,11.94ZM391.47,557.84h1.52c2.64,0,5.21,0,7.62-1.36,2.98-1.68,4.52-4.97,4.55-8.41.02-2.96-2.05-4.4-2.37-4.56-1.59-1.04-3.68-1.04-5.92-1.04h-1.76l-1.08,4.65-2.56,10.73Z"/>
        <path class="st0" d="M455.09,587.24l-.56.56h-22.19l-14.82.24-.32-.48,4.05-16.02,3.3-13.13c2.9-12.5,3.48-15.22,5.81-26.6l.56-.56h21.15l14.26-.24.48.48-3.21,10.97-.56.56h-18.03l-2.48,10.17,17.62-.32.32.64-3.12,10.41-.57.48h-16.74l-.99,3.92-1.74,7.05h8.73l12.18-.4.48.48-3.61,11.78Z"/>
        <path class="st0" d="M488.58,587.32l-.56.48-16.75.24-.4-.48,2.81-10.82,4.21-16.74,4.05-16.66-4.97.08-8.33.24-.32-.64,3.21-11.3.64-.48h27.64l14.02-.24.48.48-3.13,11.37-.64.56-7.45-.24h-4.17l-3.22,12.98-3.64,15.46-3.48,15.7Z"/>
        <path class="st0" d="M535.78,531.09c8.25.08,13.46.16,17.28,2.4,3.27,1.92,6.13,5.61,6.08,12.02-.03,4-1.02,7.93-3.29,11.21-3.24,4.57-7.02,6.01-10.39,7.21l4.31,12.82,3.61,10.01-.32.64-16.91.64-.48-.48-2.1-7.69-3.43-12.98-2.97.08c-1.98,7.85-2.4,10.01-4.32,20.35l-.56.4c-7.45,0-9.45.08-16.34.32l-.48-.48,4.13-16.18,2.4-9.85c3.47-13.94,4.13-16.98,6.39-29.8l.4-.48,16.99-.16ZM529.83,556h1.28c2.96,0,6.89,0,9.4-3.53,1.38-1.92,1.64-4.65,1.64-5.21.01-1.52-.7-3.04-1.97-3.84-1.12-.8-2.56-.96-5.36-.96h-1.6l-.99,4.09-2.39,9.45Z"/>
        <path class="st0" d="M604.61,581.79c-2.34,2.16-8.3,7.21-20.56,7.21-2.32,0-4.64-.16-6.88-.64-2.24-.4-4.4-.96-6.55-2-8.94-4.41-10.48-12.66-10.43-20.02-.04-5.21,1.61-21.87,13.05-30.6,4.92-3.85,11.42-5.69,19.35-5.69,5.85,0,13.21,1.44,17.58,6.01,4.93,5.21,5.84,11.69,5.8,16.66-.03,3.93-.7,7.93-1.77,11.86-1.64,5.69-4.34,12.41-9.58,17.22ZM598.28,550.95c.02-2.64-.41-9.13-7.22-9.13-1.84,0-5.45.96-8.21,5.53-2.84,4.73-5.24,14.74-5.28,20.11,0,.64-.02,2.64.53,4.25,1.56,5.13,6.29,5.13,6.85,5.13,8.41,0,11.31-12.41,12.56-19.3.42-2.16.76-4.41.77-6.57Z"/>
      </g>
      <g>
        <path class="st2" d="M689.56,587.32l-.64.4-15.38.32-.4-.48,2.91-14.34,1.92-9.77,4.15-19.47-14.16,28.84-6.84,14.5-.65.4-12.66.24-.56-.48-.4-10.57-1.28-32.92-2.23,8.57-3.38,13.14-5.37,21.63-.56.4c-6.01,0-7.69.08-13.22.32l-.4-.48,5.02-17.62,5.68-20.43,4.78-17.78.48-.48c10.01,0,12.34,0,21.95-.24l.48.48.31,12.66.27,5.85.68,15.62,10.26-21.63c1.3-2.64,5.29-11.13,5.86-12.26l.57-.48c9.37,0,11.7,0,21.79-.24l.4.48-3.18,17.94-3.69,21.63-2.53,16.26Z"/>
        <path class="st2" d="M711.75,587.32l-.57.4-17.3.32-.32-.48,2.73-11.06,4.3-17.46c2.65-10.81,3.39-14.18,6.22-27.32l.4-.48c7.61,0,9.29,0,17.47-.24l.24.48c-3.54,13.06-4.45,16.66-8.01,31.96l-2.9,12.82-2.25,11.06Z"/>
        <path class="st2" d="M766.63,587.32l-.57.4-11.38.32-.48-.32-4.1-8.57-11.83-25.31-4.41,21.87-2.25,11.62-.48.4-13.62.32-.4-.48,4.21-17.06,3.73-16.18c2.73-11.21,3.23-13.86,4.9-22.59l.56-.48c6.25,0,7.77,0,14.02-.24l.56.4,4.02,8.81,4.1,8.49c1.65,3.6,4.34,9.45,6.15,13.06l3.65-16.74,2.9-13.3.4-.48c5.37,0,6.89,0,12.98-.24l.4.48-5.46,22.83-2.07,8.73-5.55,24.27Z"/>
      </g>
    </g>
  </g>
  <path class="st0" d="M498.92,543.18"/>
</svg>