<svg width="849" height="710" viewBox="0 0 849 710" fill="none" xmlns="http://www.w3.org/2000/svg">
<path d="M152.44 13.1703C156.66 16.5603 158.77 21.3003 158.77 27.3703C158.77 32.5603 157.54 37.0903 155.1 40.9503C152.65 44.8103 149.17 47.7803 144.66 49.8403C140.15 51.9103 134.82 52.9403 128.69 52.9403H114.88L111.52 70.0203H97.0898L109.48 8.07031H134.53C142.26 8.07031 148.23 9.77031 152.45 13.1603L152.44 13.1703ZM140.36 37.9903C142.96 35.8103 144.25 32.6803 144.25 28.6103C144.25 25.6603 143.26 23.4503 141.29 21.9703C139.31 20.5003 136.47 19.7603 132.75 19.7603H121.51L117.17 41.2603H129.29C134.07 41.2603 137.76 40.1703 140.35 37.9903H140.36Z" fill="#1E2939"/>
<path d="M189.209 19.5901L186.549 33.0401H215.309L213.099 44.1901H184.249L181.419 58.5301H215.229L212.839 70.0301H164.869L177.259 8.08008H224.079L221.689 19.5801H189.209V19.5901Z" fill="#1E2939"/>
<path d="M250.98 19.7601H231.16L233.55 8.08008H287.53L285.14 19.7601H265.4L255.31 70.0301H240.97L250.97 19.7601H250.98Z" fill="#1E2939"/>
<path d="M343.9 42.1501C340.77 46.2801 336.44 49.2001 330.89 50.9101L341.69 70.0301H326.56L316.83 52.6801H304.62L301.17 70.0301H286.74L299.13 8.08008H324.35C332.02 8.08008 337.98 9.76007 342.23 13.1201C346.48 16.4801 348.6 21.2001 348.6 27.2801C348.6 33.3601 347.04 38.0201 343.91 42.1501H343.9ZM330.14 37.9901C332.76 35.8101 334.08 32.6801 334.08 28.6101C334.08 25.6601 333.08 23.4501 331.07 21.9701C329.06 20.5001 326.2 19.7601 322.49 19.7601H311.16L306.82 41.2601H319.03C323.81 41.2601 327.51 40.1701 330.14 37.9901Z" fill="#1E2939"/>
<path d="M371.689 67.7305C367.149 65.4905 363.669 62.3305 361.249 58.2605C358.829 54.1905 357.619 49.5005 357.619 44.1905C357.619 37.1705 359.229 30.8405 362.439 25.2105C365.659 19.5805 370.169 15.1405 375.979 11.8905C381.789 8.6505 388.439 7.02051 395.939 7.02051C402.129 7.02051 407.499 8.14051 412.049 10.3805C416.589 12.6205 420.069 15.7805 422.489 19.8505C424.909 23.9205 426.119 28.6105 426.119 33.9205C426.119 40.9405 424.509 47.2705 421.299 52.9005C418.079 58.5305 413.569 62.9805 407.759 66.2205C401.949 69.4705 395.299 71.0905 387.799 71.0905C381.609 71.0905 376.239 69.9705 371.689 67.7305ZM400.979 55.6105C404.399 53.4305 407.029 50.5105 408.859 46.8505C410.689 43.1905 411.599 39.1505 411.599 34.7305C411.599 30.0105 410.119 26.2505 407.179 23.4505C404.229 20.6505 400.069 19.2505 394.699 19.2505C390.159 19.2505 386.169 20.3405 382.749 22.5205C379.329 24.7005 376.699 27.6205 374.869 31.2805C373.039 34.9405 372.129 38.9805 372.129 43.4005C372.129 48.1205 373.599 51.8805 376.549 54.6805C379.499 57.4805 383.659 58.8805 389.029 58.8805C393.569 58.8805 397.549 57.7905 400.979 55.6105Z" fill="#1E2939"/>
<path d="M516.389 8.08008L504.089 70.0301H490.639L497.899 33.2101L474.269 63.4801H467.899L455.159 32.8601L447.729 70.0301H434.279L446.669 8.08008H458.349L473.839 46.6701L504.109 8.08008H516.409H516.389Z" fill="#1E2939"/>
<path d="M535.06 8.08008H549.49L537.1 70.0301H522.67L535.06 8.08008Z" fill="#1E2939"/>
<path d="M624.79 8.08008L612.4 70.0301H600.63L577.53 31.2701L569.74 70.0301H555.58L567.97 8.08008H579.83L602.93 46.9301L610.63 8.08008H624.79Z" fill="#1E2939"/>
<path d="M639.57 22.4201H653.29L643.82 70.0301H630.1L639.57 22.4201ZM642.98 13.7001C641.48 12.3101 640.72 10.6201 640.72 8.61012C640.72 6.25012 641.56 4.29012 643.24 2.72012C644.92 1.16012 647.12 0.370117 649.83 0.370117C652.25 0.370117 654.21 1.03012 655.71 2.36012C657.21 3.69012 657.97 5.32013 657.97 7.27013C657.97 9.81013 657.11 11.8601 655.4 13.4201C653.69 14.9801 651.48 15.7701 648.76 15.7701C646.4 15.7701 644.47 15.0801 642.96 13.6901L642.98 13.7001Z" fill="#1E2939"/>
<path d="M679.309 53.2204C679.189 53.6904 679.129 54.3404 679.129 55.1704C679.129 58.2404 680.809 59.7704 684.169 59.7704C685.999 59.7704 687.859 59.2104 689.749 58.0904L691.789 67.9104C688.719 69.8004 684.769 70.7404 679.929 70.7404C675.449 70.7404 671.849 69.5604 669.129 67.2004C666.419 64.8404 665.059 61.6004 665.059 57.4704C665.059 56.2904 665.209 54.9004 665.499 53.3104L669.299 34.1104H661.959L664.079 23.4904H671.419L673.719 11.9004H687.529L685.229 23.4904H697.089L694.969 34.1104H683.109L679.299 53.2304L679.309 53.2204Z" fill="#1E2939"/>
<path d="M704.531 68.5701C702.991 67.1301 702.23 65.3701 702.23 63.3001C702.23 60.8201 703.08 58.7901 704.8 57.1901C706.51 55.6001 708.63 54.8001 711.17 54.8001C713.47 54.8001 715.39 55.4901 716.92 56.8801C718.45 58.2701 719.22 59.9901 719.22 62.0601C719.22 64.4801 718.361 66.5301 716.651 68.2101C714.941 69.8901 712.85 70.7301 710.37 70.7301C707.89 70.7301 706.061 70.0101 704.531 68.5601V68.5701ZM713.47 8.08008H729.93L719.04 48.5201H708.07L713.47 8.08008Z" fill="#1E2939"/>
<path d="M36.3302 660.53C34.5002 663.03 31.9302 664.85 28.6302 666L35.0402 677.31H23.8902L18.2902 667.29H12.9002L10.9102 677.31H0.240234L7.78024 639.6H23.8902C28.7002 639.6 32.4402 640.66 35.1002 642.78C37.7602 644.9 39.0902 647.84 39.0902 651.61C39.0902 655.06 38.1702 658.03 36.3402 660.53H36.3302ZM26.7402 649.17C25.7002 648.4 24.2402 648.01 22.3802 648.01H16.7802L14.5202 659.05H20.8802C23.2502 659.05 25.0802 658.49 26.3802 657.38C27.6702 656.27 28.3202 654.69 28.3202 652.64C28.3202 651.1 27.8002 649.94 26.7602 649.17H26.7402Z" fill="#CB122D"/>
<path d="M56.4796 647.84L55.2396 654.2H71.9896L70.4296 662.17H53.6196L52.2696 669.07H72.0396L70.3196 677.31H40.0996L47.6396 639.6H77.1596L75.4896 647.84H56.4696H56.4796Z" fill="#CB122D"/>
<path d="M83.8408 639.6H100.221C104.101 639.6 107.461 640.24 110.291 641.51C113.131 642.79 115.311 644.62 116.841 647.01C118.371 649.4 119.131 652.21 119.131 655.44C119.131 659.82 118.131 663.66 116.141 666.97C114.151 670.27 111.371 672.82 107.821 674.62C104.261 676.42 100.191 677.31 95.5908 677.31H76.3008L83.8408 639.6ZM95.9108 668.8C98.5008 668.8 100.731 668.25 102.621 667.16C104.511 666.07 105.931 664.56 106.901 662.64C107.871 660.72 108.351 658.54 108.351 656.09C108.351 653.64 107.561 651.57 105.981 650.19C104.401 648.81 102.081 648.12 99.0308 648.12H92.7808L88.6908 668.81H95.9108V668.8Z" fill="#CB122D"/>
<path d="M137.181 647.84L135.941 654.2H152.691L151.131 662.17H134.321L132.971 669.07H152.741L151.021 677.31H120.801L128.341 639.6H157.861L156.191 647.84H137.171H137.181Z" fill="#CB122D"/>
<path d="M173.54 647.84L171.87 656.14H188.52L186.85 664.38H170.26L167.67 677.31H157L164.54 639.6H194.06L192.39 647.84H173.54Z" fill="#CB122D"/>
<path d="M199.13 639.6H209.8L202.26 677.31H191.59L199.13 639.6Z" fill="#CB122D"/>
<path d="M253.219 639.6L245.679 677.31H236.899L224.459 656.62L220.309 677.31H209.859L217.399 639.6H226.179L238.679 660.23L242.769 639.6H253.219Z" fill="#CB122D"/>
<path d="M269.65 647.84L268.41 654.2H285.16L283.6 662.17H266.79L265.44 669.07H285.21L283.49 677.31H253.27L260.81 639.6H290.33L288.66 647.84H269.64H269.65Z" fill="#CB122D"/>
<path d="M327.989 663.95L325.349 677.31H314.679L317.369 663.68L307.779 639.6H318.499L324.429 654.63L336.499 639.6H347.329L327.989 663.95Z" fill="#CB122D"/>
<path d="M351.29 675.97C348.47 674.57 346.3 672.61 344.77 670.1C343.24 667.59 342.48 664.71 342.48 661.48C342.48 657.17 343.48 653.29 345.47 649.84C347.46 646.39 350.25 643.7 353.82 641.76C357.39 639.82 361.46 638.85 366.02 638.85C369.83 638.85 373.14 639.55 375.96 640.95C378.78 642.35 380.95 644.31 382.48 646.82C384.01 649.33 384.77 652.21 384.77 655.44C384.77 659.75 383.77 663.63 381.78 667.08C379.79 670.53 377 673.22 373.43 675.16C369.86 677.1 365.79 678.07 361.23 678.07C357.42 678.07 354.11 677.37 351.29 675.97ZM368.39 667.45C370.19 666.26 371.57 664.68 372.54 662.68C373.51 660.68 373.99 658.49 373.99 656.08C373.99 653.53 373.21 651.49 371.65 649.97C370.09 648.44 367.91 647.68 365.1 647.68C362.73 647.68 360.65 648.27 358.85 649.46C357.05 650.65 355.67 652.23 354.7 654.23C353.73 656.23 353.25 658.42 353.25 660.83C353.25 663.38 354.03 665.42 355.59 666.94C357.15 668.47 359.33 669.23 362.14 669.23C364.51 669.23 366.59 668.64 368.39 667.45Z" fill="#CB122D"/>
<path d="M396.35 676.42C393.98 675.32 392.17 673.75 390.91 671.71C389.65 669.66 389.02 667.26 389.02 664.49C389.02 663.34 389.16 662.01 389.45 660.5L393.65 639.6H404.32L400.17 660.34C399.95 661.42 399.85 662.41 399.85 663.3C399.85 667.25 401.93 669.23 406.1 669.23C408.36 669.23 410.15 668.54 411.46 667.16C412.77 665.78 413.75 663.51 414.4 660.35L418.55 639.61H429.06L424.8 661C422.5 672.39 415.84 678.08 404.81 678.08C401.54 678.08 398.72 677.53 396.35 676.44V676.42Z" fill="#CB122D"/>
<path d="M464.881 660.53C463.051 663.03 460.481 664.85 457.181 666L463.591 677.31H452.441L446.841 667.29H441.451L439.461 677.31H428.791L436.331 639.6H452.441C457.251 639.6 460.991 640.66 463.651 642.78C466.311 644.9 467.641 647.84 467.641 651.61C467.641 655.06 466.721 658.03 464.891 660.53H464.881ZM455.291 649.17C454.251 648.4 452.791 648.01 450.931 648.01H445.331L443.071 659.05H449.431C451.801 659.05 453.631 658.49 454.921 657.38C456.211 656.27 456.861 654.69 456.861 652.64C456.861 651.1 456.341 649.94 455.301 649.17H455.291Z" fill="#CB122D"/>
<path d="M500.7 647.84L499.46 654.2H516.21L514.65 662.17H497.84L496.49 669.07H516.26L514.54 677.31H484.32L491.86 639.6H521.38L519.71 647.84H500.69H500.7Z" fill="#CB122D"/>
<path d="M545.9 658.4L556.14 677.31H544.609L538.9 666L529.039 677.31H516.27L534.21 657.81L524.57 639.6H535.94L541.43 650.43L551.02 639.6H563.09L545.9 658.4Z" fill="#CB122D"/>
<path d="M593.57 642.779C596.23 644.899 597.56 647.879 597.56 651.719C597.56 654.879 596.8 657.649 595.27 660.019C593.74 662.389 591.57 664.219 588.75 665.519C585.93 666.809 582.649 667.459 578.919 667.459H571.38L569.44 677.319H558.77L566.31 639.609H582.26C587.14 639.609 590.92 640.669 593.57 642.789V642.779ZM584.87 657.379C586.14 656.269 586.78 654.689 586.78 652.639C586.78 651.099 586.27 649.939 585.24 649.169C584.21 648.399 582.749 648.009 580.849 648.009H575.25L573.039 659.049H579.4C581.77 659.049 583.59 658.489 584.87 657.379Z" fill="#CB122D"/>
<path d="M614.31 647.84L613.07 654.2H629.82L628.26 662.17H611.45L610.1 669.07H629.87L628.15 677.31H597.93L605.47 639.6H634.99L633.32 647.84H614.3H614.31Z" fill="#CB122D"/>
<path d="M670.231 660.53C668.401 663.03 665.831 664.85 662.531 666L668.941 677.31H657.791L652.191 667.29H646.801L644.811 677.31H634.141L641.681 639.6H657.791C662.601 639.6 666.341 640.66 669.001 642.78C671.661 644.9 672.991 647.84 672.991 651.61C672.991 655.06 672.071 658.03 670.241 660.53H670.231ZM660.641 649.17C659.601 648.4 658.141 648.01 656.281 648.01H650.681L648.421 659.05H654.781C657.151 659.05 658.981 658.49 660.271 657.38C661.561 656.27 662.211 654.69 662.211 652.64C662.211 651.1 661.691 649.94 660.651 649.17H660.641Z" fill="#CB122D"/>
<path d="M681.54 639.6H692.21L684.67 677.31H674L681.54 639.6Z" fill="#CB122D"/>
<path d="M708.64 647.84L707.4 654.2H724.15L722.59 662.17H705.78L704.43 669.07H724.2L722.48 677.31H692.26L699.8 639.6H729.32L727.65 647.84H708.63H708.64Z" fill="#CB122D"/>
<path d="M771.831 639.6L764.291 677.31H755.511L743.071 656.62L738.921 677.31H728.471L736.011 639.6H744.791L757.291 660.23L761.381 639.6H771.831Z" fill="#CB122D"/>
<path d="M782.45 675.99C779.58 674.61 777.37 672.66 775.82 670.15C774.28 667.64 773.5 664.75 773.5 661.48C773.5 657.17 774.5 653.29 776.49 649.84C778.48 646.39 781.28 643.7 784.87 641.76C788.46 639.82 792.56 638.85 797.15 638.85C800.63 638.85 803.72 639.47 806.42 640.71C809.12 641.95 811.12 643.7 812.45 645.96L804.75 652.1C802.92 649.16 800.15 647.68 796.45 647.68C794.04 647.68 791.92 648.25 790.09 649.38C788.26 650.51 786.83 652.07 785.81 654.07C784.79 656.06 784.27 658.3 784.27 660.78C784.27 663.26 785.1 665.38 786.75 666.92C788.4 668.46 790.65 669.24 793.48 669.24C797.07 669.24 800.14 667.79 802.69 664.88L808.99 671.08C806.94 673.56 804.55 675.34 801.82 676.44C799.09 677.53 795.97 678.08 792.45 678.08C788.64 678.08 785.3 677.39 782.43 676.01L782.45 675.99Z" fill="#CB122D"/>
<path d="M828.021 647.84L826.781 654.2H843.531L841.971 662.17H825.161L823.811 669.07H843.581L841.861 677.31H811.641L819.181 639.6H848.701L847.031 647.84H828.011H828.021Z" fill="#CB122D"/>
<path d="M562.899 556.84H383.039L516.699 346.26L383.039 133.76H562.899L696.549 345.3L562.899 556.84Z" fill="#1E2939"/>
<path d="M313.26 556.84H133.4L267.06 346.26L133.4 133.76H313.26L446.92 345.3L313.26 556.84Z" fill="#1E2939"/>
<path d="M192.83 429.53H488.91L526.26 295.87H230.19L192.83 429.53Z" fill="#CB122D"/>
<path d="M531.43 277.39H652.97L654.99 270H533.49L531.43 277.39ZM537.33 256.27H658.76L662.92 241.09H541.58L537.34 256.27H537.33ZM526.26 295.87H647.91L652.1 280.56H530.54L526.26 295.87ZM534.38 266.83H655.86L657.88 259.44H536.44L534.38 266.83Z" fill="#CB122D"/>
<path d="M269.521 390.24L269.041 390.72C261.511 390.72 259.511 390.8 252.541 391.04L252.221 390.56L256.181 375.42L258.661 365.57C262.461 350.19 263.211 346.75 265.781 334.73L266.261 334.33L274.191 334.25L282.521 334.09C287.331 334.01 292.291 333.93 296.451 334.97C305.161 337.21 307.271 344.42 307.231 350.19C307.181 357.24 303.691 362.61 302.071 364.69C295.931 372.22 286.151 372.54 276.451 372.78H273.571L272.171 378.31L269.521 390.25V390.24ZM276.471 360.84H277.991C280.631 360.84 283.201 360.84 285.611 359.48C288.591 357.8 290.131 354.51 290.161 351.07C290.181 348.11 288.111 346.67 287.791 346.51C286.201 345.47 284.111 345.47 281.871 345.47H280.111L279.031 350.12L276.471 360.85V360.84Z" fill="white"/>
<path d="M340.091 390.24L339.531 390.8H317.341L302.521 391.04L302.201 390.56L306.251 374.54L309.551 361.41C312.451 348.91 313.031 346.19 315.361 334.81L315.921 334.25H337.071L351.331 334.01L351.811 334.49L348.601 345.46L348.041 346.02H330.011L327.531 356.19L345.151 355.87L345.471 356.51L342.351 366.92L341.781 367.4H325.041L324.051 371.32L322.311 378.37H331.041L343.221 377.97L343.701 378.45L340.091 390.23V390.24Z" fill="white"/>
<path d="M373.58 390.32L373.02 390.8L356.27 391.04L355.87 390.56L358.68 379.74L362.89 363L366.94 346.34L361.97 346.42L353.64 346.66L353.32 346.02L356.53 334.72L357.17 334.24H384.81L398.83 334L399.31 334.48L396.18 345.85L395.54 346.41L388.09 346.17H383.92L380.7 359.15L377.06 374.61L373.58 390.31V390.32Z" fill="white"/>
<path d="M420.781 334.09C429.031 334.17 434.241 334.25 438.061 336.49C441.331 338.41 444.191 342.1 444.141 348.51C444.111 352.51 443.121 356.44 440.851 359.72C437.611 364.29 433.831 365.73 430.461 366.93L434.771 379.75L438.381 389.76L438.061 390.4L421.151 391.04L420.671 390.56L418.571 382.87L415.141 369.89L412.171 369.97C410.191 377.82 409.771 379.98 407.851 390.32L407.291 390.72C399.841 390.72 397.841 390.8 390.951 391.04L390.471 390.56L394.601 374.38L397.001 364.53C400.471 350.59 401.131 347.55 403.391 334.73L403.791 334.25L420.781 334.09ZM414.831 359H416.111C419.071 359 423.001 359 425.511 355.47C426.891 353.55 427.151 350.82 427.151 350.26C427.161 348.74 426.451 347.22 425.181 346.42C424.061 345.62 422.621 345.46 419.821 345.46H418.221L417.231 349.55L414.841 359H414.831Z" fill="white"/>
<path d="M489.611 384.79C487.271 386.95 481.311 392 469.051 392C466.731 392 464.411 391.84 462.171 391.36C459.931 390.96 457.771 390.4 455.621 389.36C446.681 384.95 445.141 376.7 445.191 369.34C445.151 364.13 446.801 347.47 458.241 338.74C463.161 334.89 469.661 333.05 477.591 333.05C483.441 333.05 490.801 334.49 495.171 339.06C500.101 344.27 501.011 350.75 500.971 355.72C500.941 359.65 500.271 363.65 499.201 367.58C497.561 373.27 494.861 379.99 489.621 384.8L489.611 384.79ZM483.281 353.95C483.301 351.31 482.871 344.82 476.061 344.82C474.221 344.82 470.611 345.78 467.851 350.35C465.011 355.08 462.611 365.09 462.571 370.46C462.571 371.1 462.551 373.1 463.101 374.71C464.661 379.84 469.391 379.84 469.951 379.84C478.361 379.84 481.261 367.43 482.511 360.54C482.931 358.38 483.271 356.13 483.281 353.97V353.95Z" fill="white"/>
<path d="M574.56 390.32L573.92 390.719L558.54 391.039L558.14 390.56L561.05 376.219L562.97 366.45L567.12 346.979L552.96 375.82L546.12 390.32L545.47 390.719L532.81 390.96L532.25 390.479L531.85 379.909L530.57 346.99L528.34 355.56L524.96 368.7L519.59 390.33L519.03 390.729C513.02 390.729 511.34 390.809 505.81 391.049L505.41 390.57L510.43 372.95L516.11 352.52L520.89 334.74L521.37 334.26C531.38 334.26 533.71 334.26 543.32 334.02L543.8 334.5L544.11 347.159L544.38 353.01L545.06 368.63L555.32 347C556.62 344.36 560.61 335.87 561.18 334.74L561.75 334.26C571.12 334.26 573.45 334.26 583.54 334.02L583.94 334.5L580.76 352.44L577.07 374.07L574.54 390.33L574.56 390.32Z" fill="#FF8300"/>
<path d="M596.751 390.32L596.181 390.72L578.881 391.04L578.561 390.56L581.291 379.5L585.591 362.04C588.241 351.23 588.981 347.86 591.811 334.72L592.211 334.24C599.821 334.24 601.501 334.24 609.681 334L609.921 334.48C606.381 347.54 605.471 351.14 601.911 366.44L599.011 379.26L596.761 390.32H596.751Z" fill="#FF8300"/>
<path d="M651.629 390.32L651.059 390.719L639.679 391.039L639.199 390.719L635.099 382.15L623.269 356.84L618.859 378.71L616.609 390.33L616.129 390.729L602.509 391.049L602.109 390.57L606.319 373.51L610.049 357.33C612.779 346.12 613.279 343.47 614.949 334.74L615.509 334.26C621.759 334.26 623.279 334.26 629.529 334.02L630.089 334.419L634.109 343.229L638.209 351.719C639.859 355.319 642.549 361.17 644.359 364.78L648.009 348.039L650.909 334.74L651.309 334.26C656.679 334.26 658.199 334.26 664.289 334.02L664.689 334.5L659.229 357.33L657.159 366.06L651.609 390.33L651.629 390.32Z" fill="#FF8300"/>
</svg>
